<svg xmlns="http://www.w3.org/2000/svg" xmlns:xlink="http://www.w3.org/1999/xlink" version="1.1" data-diagram-type="STATE" style="width:629px;height:613px;background:#FFFFFF;" width="629px" height="613px" viewBox="0 0 629 613" zoomAndPan="magnify" preserveAspectRatio="none" contentStyleType="text/css"><?plantuml 1.2026.8?><defs/><g font-family="sans-serif" lengthAdjust="spacing"><g class="title" data-source-line="1"><text x="184.757" y="23.33" fill="#000" font-size="14" textLength="253.196" font-weight="700">Ciclo de Vida de um Estágio (Internship)</text></g><g class="start_entity" data-qualified-name=".start." id="ent0001" data-source-line="3"><ellipse cx="329" cy="53.707" rx="10" ry="10" fill="#222" style="stroke:#222;stroke-width:1;"/></g><g class="entity" data-qualified-name="PENDING" id="ent0002" data-source-line="3"><rect x="290.04" y="156.707" width="77.928" height="50" fill="#F1F1F1" style="stroke:#181818;stroke-width:0.5;" rx="12.5" ry="12.5"/><line x1="290.04" y1="183.414" x2="367.968" y2="183.414" style="stroke:#181818;stroke-width:0.5;"/><text x="300.04" y="175.037" fill="#000" font-size="14" textLength="57.928">PENDING</text></g><g class="entity" data-qualified-name="REJECTED" id="ent0004" data-source-line="5"><rect x="429.13" y="386.247" width="85.748" height="50" fill="#F1F1F1" style="stroke:#181818;stroke-width:0.5;" rx="12.5" ry="12.5"/><line x1="429.13" y1="412.954" x2="514.878" y2="412.954" style="stroke:#181818;stroke-width:0.5;"/><text x="439.13" y="404.577" fill="#000" font-size="14" textLength="65.748">REJECTED</text></g><g class="entity" data-qualified-name="ACTIVE" id="ent0006" data-source-line="6"><rect x="22.86" y="302.977" width="66.279" height="50" fill="#F1F1F1" style="stroke:#181818;stroke-width:0.5;" rx="12.5" ry="12.5"/><line x1="22.86" y1="329.684" x2="89.139" y2="329.684" style="stroke:#181818;stroke-width:0.5;"/><text x="32.86" y="321.307" fill="#000" font-size="14" textLength="46.279">ACTIVE</text></g><g class="entity" data-qualified-name="COMPLETED" id="ent0009" data-source-line="9"><rect x="7" y="466.247" width="100.001" height="50" fill="#F1F1F1" style="stroke:#181818;stroke-width:0.5;" rx="12.5" ry="12.5"/><line x1="7" y1="492.954" x2="107.001" y2="492.954" style="stroke:#181818;stroke-width:0.5;"/><text x="17" y="484.577" fill="#000" font-size="14" textLength="80.001">COMPLETED</text></g><g class="entity" data-qualified-name="TERMINATED" id="ent0011" data-source-line="10"><rect x="142.49" y="466.247" width="103.016" height="50" fill="#F1F1F1" style="stroke:#181818;stroke-width:0.5;" rx="12.5" ry="12.5"/><line x1="142.49" y1="492.954" x2="245.506" y2="492.954" style="stroke:#181818;stroke-width:0.5;"/><text x="152.49" y="484.577" fill="#000" font-size="14" textLength="83.016">TERMINATED</text></g><g class="end_entity" data-qualified-name=".end." id="ent0013" data-source-line="12"><ellipse cx="194" cy="588.247" rx="11" ry="11" fill="none" style="stroke:#222;stroke-width:1;"/><ellipse cx="194" cy="588.247" rx="6" ry="6" fill="#222" style="stroke:#222;stroke-width:1;"/></g><g class="entity" data-qualified-name="GMN17" id="ent0018" data-source-line="17"><path d="M300.59,299.707 L300.59,323.977 L89.51,327.977 L300.59,331.977 L300.59,356.248 A0,0 0 0 0 300.59,356.248 L549.42,356.248 A0,0 0 0 0 549.42,356.248 L549.42,309.707 L539.42,299.707 L300.59,299.707 A0,0 0 0 0 300.59,299.707" style="stroke:#181818;stroke-width:0.5;" fill="#FEFFDD"/><path d="M539.42,299.707 L539.42,309.707 L549.42,309.707 L539.42,299.707" style="stroke:#181818;stroke-width:0.5;" fill="#FEFFDD"/><text x="306.59" y="317.085" fill="#000" font-size="13" textLength="181.092">Cada prorrogação gera uma nova</text><text x="306.59" y="332.599" fill="#000" font-size="13" textLength="227.83">InternshipSubmission (kind=EXTENSION)</text><text x="306.59" y="348.112" fill="#000" font-size="13" textLength="171.311">vinculada ao mesmo Internship.</text></g><!--link *start* to PENDING--><g class="link" data-entity-1="ent0001" data-entity-2="ent0002" id="lnk3" data-source-line="3" data-link-type="dependency"><path d="M329,64.177 C329,83.637 329,123.637 329,151.677" style="stroke:#181818;stroke-width:1;" fill="none" id="*start*-to-PENDING"/><polygon points="329,156.677,333,147.677,329,151.677,325,147.677,329,156.677" fill="#181818" style="stroke:#181818;stroke-width:1;stroke-linejoin:miter;stroke-miterlimit:10;"/><text x="349.364" y="107.085" fill="#000" font-size="13" textLength="63.083">Aluno envia</text><text x="330" y="122.599" fill="#000" font-size="13" textLength="101.81">submissão INITIAL</text></g><!--link PENDING to REJECTED--><g class="link" data-entity-1="ent0002" data-entity-2="ent0004" id="lnk5" data-source-line="5" data-link-type="dependency"><path d="M368.35,189.007 C423.88,200.257 523.31,229.547 567,299.707 C580.28,321.037 579.64,334.527 567,356.247 C555.74,375.597 539.272,386.598 519.832,394.978" style="stroke:#181818;stroke-width:1;" fill="none" id="PENDING-to-REJECTED"/><polygon points="515.24,396.957,525.088,397.068,519.832,394.978,521.921,389.721,515.24,396.957" fill="#181818" style="stroke:#181818;stroke-width:1;stroke-linejoin:miter;stroke-miterlimit:10;"/><text x="542.63" y="250.085" fill="#000" font-size="13" textLength="71.081">Admin rejeita</text><text x="548.809" y="265.599" fill="#000" font-size="13" textLength="58.722">submissão</text></g><!--link PENDING to ACTIVE--><g class="link" data-entity-1="ent0002" data-entity-2="ent0006" id="lnk7" data-source-line="6" data-link-type="dependency"><path d="M289.6,203.527 C235.7,232.017 144.351,280.291 93.801,307.001" style="stroke:#181818;stroke-width:1;" fill="none" id="PENDING-to-ACTIVE"/><polygon points="89.38,309.337,99.206,308.669,93.801,307.001,95.469,301.596,89.38,309.337" fill="#181818" style="stroke:#181818;stroke-width:1;stroke-linejoin:miter;stroke-miterlimit:10;"/><text x="234.232" y="250.085" fill="#000" font-size="13" textLength="75.385">Admin aprova</text><text x="225.98" y="265.599" fill="#000" font-size="13" textLength="91.889">submissão inicial</text></g><!--link ACTIVE to ACTIVE--><g class="link" data-entity-1="ent0006" data-entity-2="ent0006" id="lnk8" data-source-line="8" data-link-type="dependency"><path d="M89.31,314.577 C107.49,312.197 124.14,316.657 124.14,327.977 C124.14,339.297 112.448,344.406 94.268,342.026" style="stroke:#181818;stroke-width:1;" fill="none" id="ACTIVE-to-ACTIVE"/><polygon points="89.31,341.377,97.715,346.511,94.268,342.026,98.753,338.579,89.31,341.377" fill="#181818" style="stroke:#181818;stroke-width:1;stroke-linejoin:miter;stroke-miterlimit:10;"/><text x="158.098" y="324.855" fill="#000" font-size="13" textLength="90.181">Nova submissão</text><text x="130.14" y="340.369" fill="#000" font-size="13" textLength="146.098">EXTENSION (prorrogação)</text></g><!--link ACTIVE to COMPLETED--><g class="link" data-entity-1="ent0006" data-entity-2="ent0009" id="lnk10" data-source-line="9" data-link-type="dependency"><path d="M54.45,353.207 C53.87,363.407 53.28,375.397 53,386.247 C52.42,408.457 52.18,414.037 53,436.247 C53.36,445.927 53.687,451.573 54.417,460.823" style="stroke:#181818;stroke-width:1;" fill="none" id="ACTIVE-to-COMPLETED"/><polygon points="54.81,465.807,58.09,456.52,54.417,460.823,50.114,457.15,54.81,465.807" fill="#181818" style="stroke:#181818;stroke-width:1;stroke-linejoin:miter;stroke-miterlimit:10;"/><text x="54" y="408.125" fill="#000" font-size="13" textLength="96.059">Estágio concluído</text><text x="78.496" y="423.639" fill="#000" font-size="13" textLength="47.068">no prazo</text></g><!--link ACTIVE to TERMINATED--><g class="link" data-entity-1="ent0006" data-entity-2="ent0011" id="lnk12" data-source-line="10" data-link-type="dependency"><path d="M89.36,341.347 C110.7,350.767 137.55,365.637 155,386.247 C174.56,409.357 183.729,438.353 188.719,461.103" style="stroke:#181818;stroke-width:1;" fill="none" id="ACTIVE-to-TERMINATED"/><polygon points="189.79,465.987,191.769,456.339,188.719,461.103,183.955,458.053,189.79,465.987" fill="#181818" style="stroke:#181818;stroke-width:1;stroke-linejoin:miter;stroke-miterlimit:10;"/><text x="181.64" y="408.125" fill="#000" font-size="13" textLength="98.344">Estágio encerrado</text><text x="183.297" y="423.639" fill="#000" font-size="13" textLength="95.031">antecipadamente</text></g><!--link REJECTED to *end*--><g class="link" data-entity-1="ent0004" data-entity-2="ent0013" id="lnk14" data-source-line="12" data-link-type="dependency"><path d="M433.35,436.577 C367.7,477.907 242.352,556.814 207.202,578.934" style="stroke:#181818;stroke-width:1;" fill="none" id="REJECTED-to-*end*"/><polygon points="202.97,581.597,212.718,580.189,207.202,578.934,208.457,573.418,202.97,581.597" fill="#181818" style="stroke:#181818;stroke-width:1;stroke-linejoin:miter;stroke-miterlimit:10;"/></g><!--link COMPLETED to *end*--><g class="link" data-entity-1="ent0009" data-entity-2="ent0013" id="lnk15" data-source-line="13" data-link-type="dependency"><path d="M92.28,516.707 C123.52,538.377 162.811,565.617 181.151,578.337" style="stroke:#181818;stroke-width:1;" fill="none" id="COMPLETED-to-*end*"/><polygon points="185.26,581.187,180.144,572.771,181.151,578.337,175.585,579.345,185.26,581.187" fill="#181818" style="stroke:#181818;stroke-width:1;stroke-linejoin:miter;stroke-miterlimit:10;"/></g><!--link TERMINATED to *end*--><g class="link" data-entity-1="ent0011" data-entity-2="ent0013" id="lnk16" data-source-line="14" data-link-type="dependency"><path d="M194,516.707 C194,536.287 194,557.737 194,572.047" style="stroke:#181818;stroke-width:1;" fill="none" id="TERMINATED-to-*end*"/><polygon points="194,577.047,198,568.047,194,572.047,190,568.047,194,577.047" fill="#181818" style="stroke:#181818;stroke-width:1;stroke-linejoin:miter;stroke-miterlimit:10;"/></g><?plantuml-src NP51JiCm44NtFiKiMwHo02IGejH2HgrRjL65H5cOsAG3oJXod2wu3MB1YbFaOjWgJHDMjkp__ipyyUXB0odcfGLjO8TQnREjW3U--opGmaIGDuwQ0zPJnfwkdc4skuCrbtCXx-46ah8b2uQEgFRKj2yLDattPK58aObamTXP6h4DV-1fnkUHqnKIEFDcq8_84P2acTZnNgvgPu_ZEaYOeoeP-vEEA1dKS17lYJzcN6x5Ii8aM3bd2zLzXv_f44zNo_M2dzhiSyWjvMNR_UZW4WQkdVgmGoZZcwMGoJ_AK6wSKn5I8SSSQwLLPSALiJwCY8TWsQNk-MLWUdvYPBq1XyN1Wttz6vK1fC4OHZD1OPmAkrH08OOWkMnoUue4BS7a7KdVzhbCW-w8bBTbz5CMAjDKTe1UCqCQOXFi5m00?></g></svg>